<svg width="193" height="133" viewBox="0 0 193 133" fill="none" xmlns="http://www.w3.org/2000/svg">
<path d="M79.1538 45.6661C68.9097 47.5408 61.56 47.145 60.4875 44.1362C58.7967 39.3932 73.3452 29.9528 92.9825 23.0506C112.62 16.1485 129.91 14.3981 131.6 19.1412C132.68 22.1684 127.144 27.1091 117.891 32.082" stroke="#364D9D" stroke-width="2"/>
<ellipse cx="95.4646" cy="30.8596" rx="22.9368" ry="22.7755" fill="#364D9D"/>
<path fill-rule="evenodd" clip-rule="evenodd" d="M84.7606 23.912C84.7606 22.9972 85.5074 22.2556 86.4287 22.2556H104.778C105.699 22.2556 106.446 22.9972 106.446 23.912V38.8196C106.446 39.7344 105.699 40.476 104.778 40.476H86.4287C85.5074 40.476 84.7606 39.7344 84.7606 38.8196V23.912ZM104.778 23.912H86.4287V38.8196H104.778V23.912Z" fill="#EDECEE"/>
<path fill-rule="evenodd" clip-rule="evenodd" d="M84.7606 26.3966C84.7606 25.9392 85.134 25.5684 85.5946 25.5684H105.612C106.073 25.5684 106.446 25.9392 106.446 26.3966C106.446 26.854 106.073 27.2248 105.612 27.2248H85.5946C85.134 27.2248 84.7606 26.854 84.7606 26.3966Z" fill="#EDECEE"/>
<path fill-rule="evenodd" clip-rule="evenodd" d="M91.4331 28.8812C91.8937 28.8812 92.2671 29.252 92.2671 29.7094C92.2671 30.588 92.6186 31.4307 93.2443 32.0519C93.87 32.6732 94.7186 33.0222 95.6034 33.0222C96.4882 33.0222 97.3368 32.6732 97.9625 32.0519C98.5882 31.4307 98.9396 30.588 98.9396 29.7094C98.9396 29.252 99.3131 28.8812 99.7737 28.8812C100.234 28.8812 100.608 29.252 100.608 29.7094C100.608 31.0273 100.081 32.2913 99.142 33.2232C98.2035 34.1551 96.9306 34.6786 95.6034 34.6786C94.2761 34.6786 93.0033 34.1551 92.0648 33.2232C91.1262 32.2913 90.599 31.0273 90.599 29.7094C90.599 29.252 90.9724 28.8812 91.4331 28.8812Z" fill="#EDECEE"/>
<path d="M79.1537 45.6661C80.882 45.3498 82.6928 44.9689 84.5697 44.525M117.891 32.082C116.148 33.0191 114.273 33.9574 112.285 34.8842" stroke="#F7F7F8" stroke-width="2"/>
<path d="M0.565315 107.061C0.188438 107.061 0 106.872 0 106.495V90.9493C0 90.5933 0.146563 90.4154 0.439689 90.4154H3.54892C3.84205 90.4154 3.98861 90.5724 3.98861 90.8864V92.5196C3.98861 92.6452 4.02002 92.729 4.08283 92.7708C4.14564 92.7918 4.22939 92.7499 4.33408 92.6452C4.92033 92.1218 5.48565 91.6716 6.03002 91.2947C6.59534 90.9179 7.17112 90.6247 7.75737 90.4154C8.36456 90.185 9.00316 90.0699 9.67316 90.0699C10.8457 90.0699 11.8088 90.3421 12.5625 90.8864C13.3163 91.4308 13.8397 92.1218 14.1329 92.9593C14.1747 93.043 14.2376 93.0744 14.3213 93.0535C14.4051 93.0326 14.4888 92.9802 14.5726 92.8965C15.1169 92.3521 15.6927 91.8705 16.2999 91.4518C16.9071 91.033 17.5352 90.7085 18.1843 90.4782C18.8334 90.2269 19.4824 90.1013 20.1315 90.1013C21.6181 90.1013 22.7906 90.5514 23.649 91.4518C24.5074 92.3311 24.9367 93.5351 24.9367 95.0635V106.401C24.9367 106.841 24.7168 107.061 24.2771 107.061H21.3877C21.1993 107.061 21.0632 107.019 20.9795 106.935C20.8957 106.851 20.8538 106.705 20.8538 106.495V95.6916C20.8538 94.8751 20.6445 94.2469 20.2257 93.8072C19.8279 93.3466 19.2207 93.1163 18.4041 93.1163C17.9226 93.1163 17.4619 93.2105 17.0223 93.399C16.5826 93.5665 16.1848 93.7863 15.8288 94.0585C15.4729 94.3307 15.1588 94.6029 14.8866 94.8751C14.7401 95.0216 14.6354 95.1682 14.5726 95.3147C14.5307 95.4404 14.5097 95.5974 14.5097 95.7858V106.401C14.5097 106.841 14.2899 107.061 13.8502 107.061H10.9608C10.7933 107.061 10.6572 107.019 10.5525 106.935C10.4688 106.851 10.4269 106.705 10.4269 106.495V95.6916C10.4269 94.8751 10.228 94.2469 9.83019 93.8072C9.43238 93.3466 8.81472 93.1163 7.97722 93.1163C7.26534 93.1163 6.60581 93.2943 5.99862 93.6502C5.41237 94.0061 4.77377 94.5401 4.08283 95.2519V106.433C4.08283 106.851 3.84205 107.061 3.36048 107.061H0.565315Z" fill="#1A181B"/>
<path d="M37.878 105.333C37.1662 105.962 36.3915 106.464 35.554 106.841C34.7165 107.197 33.7638 107.375 32.696 107.375C31.0838 107.375 29.8171 106.956 28.8958 106.119C27.9955 105.26 27.5454 104.15 27.5454 102.789C27.5454 101.638 27.8908 100.643 28.5818 99.8059C29.2727 98.9474 30.2777 98.2774 31.5968 97.7959C32.9158 97.3143 34.4966 97.0316 36.3391 96.9479L37.9095 96.8537C38.0351 96.8327 38.1502 96.7908 38.2549 96.728C38.3596 96.6652 38.412 96.5501 38.412 96.3826V95.6602C38.412 94.739 38.1398 94.0271 37.5954 93.5246C37.051 93.0011 36.2973 92.7394 35.3341 92.7394C34.6013 92.7394 33.9104 92.9069 33.2613 93.2419C32.6332 93.556 32.0888 94.0794 31.6282 94.8122C31.5654 94.9379 31.4921 95.0216 31.4083 95.0635C31.3455 95.1054 31.2199 95.1054 31.0315 95.0635L28.3933 94.404C28.2886 94.3621 28.2049 94.2993 28.1421 94.2155C28.1002 94.1318 28.1421 93.9643 28.2677 93.713C28.833 92.5196 29.7229 91.6193 30.9372 91.0121C32.1726 90.4049 33.701 90.1013 35.5226 90.1013C37.1348 90.1013 38.4329 90.3211 39.417 90.7608C40.422 91.2005 41.1548 91.8182 41.6154 92.6138C42.076 93.3885 42.3063 94.3097 42.3063 95.3776V106.433C42.3063 106.663 42.2645 106.83 42.1807 106.935C42.1179 107.019 41.9818 107.061 41.7724 107.061H39.1029C38.9145 107.061 38.7784 106.987 38.6946 106.841C38.6109 106.694 38.5585 106.516 38.5376 106.307L38.4748 105.365C38.4329 105.009 38.234 104.998 37.878 105.333ZM38.412 99.4604C38.412 99.0835 38.2549 98.9055 37.9409 98.9265L36.6532 99.0207C35.9832 99.0626 35.3341 99.1673 34.706 99.3348C34.0988 99.4813 33.5544 99.6907 33.0729 99.9629C32.6122 100.214 32.2354 100.539 31.9422 100.936C31.6701 101.313 31.534 101.764 31.534 102.287C31.534 102.999 31.7852 103.564 32.2877 103.983C32.8111 104.402 33.5126 104.611 34.3919 104.611C34.9573 104.611 35.4807 104.517 35.9623 104.328C36.4438 104.14 36.8626 103.899 37.2185 103.606C37.5745 103.313 37.8571 103.009 38.0665 102.695C38.2968 102.36 38.412 102.025 38.412 101.69V99.4604Z" fill="#1A181B"/>
<path d="M46.7854 107.061C46.5761 107.061 46.4295 107.019 46.3457 106.935C46.262 106.83 46.2201 106.684 46.2201 106.495V90.9493C46.2201 90.5933 46.3667 90.4154 46.6598 90.4154H49.7062C49.9994 90.4154 50.1459 90.5724 50.1459 90.8864V92.8022C50.1459 92.9279 50.1878 93.0116 50.2715 93.0535C50.3553 93.0744 50.4495 93.0221 50.5542 92.8965C51.0148 92.2893 51.5069 91.7868 52.0303 91.389C52.5747 90.9702 53.119 90.6561 53.6634 90.4468C54.2287 90.2164 54.7731 90.1013 55.2966 90.1013C56.0503 90.1013 56.4272 90.2688 56.4272 90.6038V93.6188C56.4272 93.9119 56.2911 94.0376 56.0189 93.9957C55.7048 93.9119 55.3698 93.8596 55.0139 93.8386C54.6789 93.7968 54.3648 93.7758 54.0717 93.7758C53.6739 93.7758 53.2447 93.8596 52.784 94.0271C52.3444 94.1946 51.9361 94.4354 51.5592 94.7494C51.1823 95.0426 50.8787 95.3671 50.6484 95.723C50.4181 96.079 50.3029 96.4454 50.3029 96.8223V106.433C50.3029 106.851 50.0622 107.061 49.5806 107.061H46.7854Z" fill="#1A181B"/>
<path d="M74.9297 106.401C75.0344 106.548 75.0553 106.694 74.9925 106.841C74.9297 106.987 74.7831 107.061 74.5528 107.061H71.0981C70.9097 107.061 70.7527 107.019 70.627 106.935C70.5223 106.83 70.4281 106.684 70.3444 106.495L66.5756 99.4604C66.5128 99.3138 66.45 99.2301 66.3872 99.2091C66.3244 99.1882 66.2301 99.2405 66.1045 99.3662L63.4978 101.941C63.414 102.025 63.3408 102.119 63.2779 102.224C63.2361 102.329 63.2151 102.475 63.2151 102.664V106.37C63.2151 106.621 63.1628 106.799 63.0581 106.904C62.9534 107.008 62.765 107.061 62.4928 107.061H59.7604C59.5092 107.061 59.3417 107.019 59.2579 106.935C59.1742 106.83 59.1323 106.684 59.1323 106.495V84.2911C59.1323 83.9352 59.2893 83.7572 59.6034 83.7572H62.7755C63.0686 83.7572 63.2151 83.9247 63.2151 84.2597V97.733C63.2151 97.8587 63.2465 97.9424 63.3094 97.9843C63.3722 98.0262 63.4664 97.9738 63.592 97.8273L70.1245 90.855C70.4177 90.5619 70.6794 90.4154 70.9097 90.4154H73.7677C74.0399 90.4154 74.1969 90.4886 74.2388 90.6352C74.3016 90.7818 74.2388 90.9493 74.0503 91.1377L69.4336 95.7858C69.3499 95.8905 69.2975 95.9952 69.2766 96.0999C69.2556 96.2046 69.2975 96.3616 69.4022 96.571L74.9297 106.401Z" fill="#1A181B"/>
<path d="M79.9143 100.026C79.9143 100.884 80.1132 101.659 80.511 102.35C80.9088 103.02 81.4532 103.554 82.1441 103.951C82.856 104.328 83.6307 104.517 84.4682 104.517C85.3266 104.517 86.1013 104.339 86.7922 103.983C87.5041 103.627 88.1741 103.051 88.8023 102.256C88.886 102.151 88.9593 102.099 89.0221 102.099C89.0849 102.078 89.1896 102.109 89.3362 102.193L91.252 103.041C91.5241 103.166 91.5555 103.355 91.3462 103.606C90.718 104.527 90.0376 105.271 89.3048 105.836C88.5929 106.38 87.7972 106.778 86.9179 107.029C86.0594 107.26 85.0858 107.375 83.9971 107.375C82.4058 107.375 80.9821 107.019 79.7258 106.307C78.4696 105.595 77.475 104.611 76.7422 103.355C76.0303 102.078 75.6744 100.612 75.6744 98.9579C75.6744 97.1363 76.0408 95.566 76.7736 94.2469C77.5274 92.9279 78.5324 91.9124 79.7886 91.2005C81.0449 90.4677 82.4268 90.1013 83.9343 90.1013C85.5255 90.1013 86.9074 90.4468 88.0799 91.1377C89.2733 91.8286 90.2051 92.8232 90.8751 94.1213C91.5451 95.3985 91.8801 96.9583 91.8801 98.8009C91.8801 99.0102 91.8591 99.1777 91.8173 99.3034C91.7963 99.429 91.6498 99.5023 91.3776 99.5232H80.2597C80.1341 99.5232 80.0399 99.5651 79.9771 99.6488C79.9352 99.7326 79.9143 99.8582 79.9143 100.026ZM87.3576 97.1991C87.5669 97.1991 87.703 97.1782 87.7658 97.1363C87.8496 97.0735 87.8915 96.9479 87.8915 96.7594C87.8915 96.1104 87.7449 95.4718 87.4518 94.8437C87.1587 94.2155 86.7294 93.7026 86.1641 93.3047C85.5988 92.886 84.9079 92.6766 84.0913 92.6766C83.2538 92.6766 82.521 92.886 81.8928 93.3047C81.2647 93.7026 80.7832 94.2469 80.4482 94.9379C80.1341 95.6079 79.9771 96.3616 79.9771 97.1991H87.3576Z" fill="#1A181B"/>
<path d="M100.557 93.2733C100.348 93.2733 100.243 93.3885 100.243 93.6188V102.004C100.243 102.821 100.411 103.386 100.746 103.7C101.081 104.014 101.604 104.171 102.316 104.171H104.169C104.295 104.171 104.399 104.213 104.483 104.297C104.567 104.381 104.609 104.485 104.609 104.611L104.577 106.244C104.577 106.579 104.378 106.789 103.981 106.872C103.667 106.914 103.3 106.956 102.881 106.998C102.463 107.019 102.044 107.04 101.625 107.061C101.227 107.061 100.861 107.061 100.526 107.061C99.1231 107.061 98.0448 106.736 97.2911 106.087C96.5373 105.417 96.1604 104.412 96.1604 103.072V93.6816C96.1604 93.4094 96.0348 93.2733 95.7835 93.2733H93.6793C93.3443 93.2733 93.1768 93.1163 93.1768 92.8022V90.8236C93.1768 90.5514 93.3338 90.4154 93.6479 90.4154H95.972C96.1604 90.4154 96.2546 90.3107 96.2546 90.1013L96.6629 85.2647C96.6839 84.9297 96.8304 84.7622 97.1026 84.7622H99.8978C100.191 84.7622 100.337 84.9402 100.337 85.2961V90.1013C100.337 90.2897 100.432 90.3839 100.62 90.3839H104.169C104.483 90.3839 104.64 90.5305 104.64 90.8236V92.8022C104.64 93.1163 104.462 93.2733 104.106 93.2733H100.557Z" fill="#1A181B"/>
<path d="M117.736 94.5296C117.339 94.0061 116.815 93.5665 116.166 93.2105C115.517 92.8546 114.721 92.6766 113.779 92.6766C112.879 92.6766 112.125 92.8546 111.518 93.2105C110.911 93.5665 110.607 94.069 110.607 94.718C110.607 95.0321 110.733 95.3357 110.984 95.6288C111.235 95.9219 111.79 96.1837 112.649 96.414L116.386 97.419C118.019 97.8168 119.181 98.4449 119.872 99.3034C120.584 100.141 120.94 101.094 120.94 102.161C120.94 103.25 120.626 104.182 119.998 104.957C119.39 105.731 118.532 106.328 117.422 106.747C116.334 107.165 115.088 107.375 113.685 107.375C111.884 107.375 110.345 107.05 109.068 106.401C107.791 105.731 106.891 104.904 106.367 103.92C106.304 103.794 106.273 103.679 106.273 103.575C106.273 103.449 106.325 103.344 106.43 103.261L108.283 102.318C108.451 102.214 108.587 102.172 108.691 102.193C108.796 102.214 108.88 102.266 108.943 102.35C109.257 102.789 109.613 103.187 110.01 103.543C110.429 103.899 110.932 104.182 111.518 104.391C112.125 104.601 112.858 104.695 113.716 104.674C114.365 104.674 114.952 104.59 115.475 104.423C116.019 104.255 116.449 104.025 116.763 103.732C117.077 103.418 117.234 103.041 117.234 102.601C117.234 102.182 117.056 101.816 116.7 101.502C116.344 101.188 115.705 100.916 114.784 100.685L111.581 99.9315C109.989 99.5546 108.817 98.9893 108.063 98.2355C107.33 97.4818 106.964 96.5396 106.964 95.409C106.964 94.3621 107.236 93.4408 107.781 92.6452C108.346 91.8496 109.141 91.2319 110.167 90.7922C111.193 90.3316 112.408 90.1013 113.811 90.1013C115.36 90.1013 116.7 90.3839 117.831 90.9493C118.961 91.5146 119.788 92.216 120.312 93.0535C120.395 93.1582 120.448 93.2733 120.469 93.399C120.511 93.5246 120.458 93.6293 120.312 93.713L118.364 94.6866C118.239 94.7494 118.124 94.7704 118.019 94.7494C117.914 94.7076 117.82 94.6343 117.736 94.5296Z" fill="#1A181B"/>
<path d="M127.517 90.4154C127.915 90.4154 128.113 90.6038 128.113 90.9807V92.0485C128.113 92.195 128.155 92.2788 128.239 92.2997C128.323 92.2997 128.417 92.2474 128.522 92.1427C128.836 91.8496 129.192 91.546 129.59 91.2319C130.008 90.9179 130.511 90.6561 131.097 90.4468C131.683 90.2164 132.395 90.1013 133.233 90.1013C134.489 90.1013 135.609 90.4154 136.593 91.0435C137.577 91.6507 138.362 92.5824 138.949 93.8386C139.535 95.074 139.828 96.6443 139.828 98.5496C139.828 100.518 139.535 102.161 138.949 103.48C138.362 104.779 137.546 105.752 136.499 106.401C135.473 107.05 134.29 107.375 132.95 107.375C132.092 107.375 131.306 107.239 130.595 106.967C129.883 106.694 129.244 106.297 128.679 105.773C128.469 105.585 128.323 105.501 128.239 105.522C128.155 105.543 128.113 105.689 128.113 105.962V111.74C128.113 112.075 127.967 112.243 127.674 112.243H124.47C124.177 112.243 124.031 112.075 124.031 111.74V91.0435C124.031 90.8132 124.073 90.6561 124.156 90.5724C124.24 90.4677 124.408 90.4154 124.659 90.4154H127.517ZM128.113 102.978C128.595 103.501 129.108 103.92 129.652 104.234C130.218 104.548 130.846 104.705 131.537 104.705C132.374 104.705 133.097 104.496 133.704 104.077C134.332 103.637 134.813 102.967 135.148 102.067C135.504 101.146 135.682 99.9629 135.682 98.5182C135.682 97.0944 135.504 95.9638 135.148 95.1263C134.813 94.2888 134.332 93.6921 133.704 93.3361C133.097 92.9593 132.416 92.7708 131.662 92.7708C130.971 92.7708 130.354 92.9174 129.809 93.2105C129.286 93.4827 128.867 93.8386 128.553 94.2783C128.26 94.718 128.113 95.1787 128.113 95.6602V102.978Z" fill="#1A181B"/>
<path d="M152.217 105.333C151.505 105.962 150.73 106.464 149.893 106.841C149.055 107.197 148.103 107.375 147.035 107.375C145.423 107.375 144.156 106.956 143.235 106.119C142.334 105.26 141.884 104.15 141.884 102.789C141.884 101.638 142.23 100.643 142.921 99.8059C143.612 98.9474 144.617 98.2774 145.936 97.7959C147.255 97.3143 148.835 97.0316 150.678 96.9479L152.248 96.8537C152.374 96.8327 152.489 96.7908 152.594 96.728C152.698 96.6652 152.751 96.5501 152.751 96.3826V95.6602C152.751 94.739 152.479 94.0271 151.934 93.5246C151.39 93.0011 150.636 92.7394 149.673 92.7394C148.94 92.7394 148.249 92.9069 147.6 93.2419C146.972 93.556 146.428 94.0794 145.967 94.8122C145.904 94.9379 145.831 95.0216 145.747 95.0635C145.684 95.1054 145.559 95.1054 145.37 95.0635L142.732 94.404C142.627 94.3621 142.544 94.2993 142.481 94.2155C142.439 94.1318 142.481 93.9643 142.607 93.713C143.172 92.5196 144.062 91.6193 145.276 91.0121C146.511 90.4049 148.04 90.1013 149.861 90.1013C151.474 90.1013 152.772 90.3211 153.756 90.7608C154.761 91.2005 155.494 91.8182 155.954 92.6138C156.415 93.3885 156.645 94.3097 156.645 95.3776V106.433C156.645 106.663 156.603 106.83 156.52 106.935C156.457 107.019 156.321 107.061 156.111 107.061H153.442C153.253 107.061 153.117 106.987 153.033 106.841C152.95 106.694 152.897 106.516 152.876 106.307L152.814 105.365C152.772 105.009 152.573 104.998 152.217 105.333ZM152.751 99.4604C152.751 99.0835 152.594 98.9055 152.28 98.9265L150.992 99.0207C150.322 99.0626 149.673 99.1673 149.045 99.3348C148.438 99.4813 147.893 99.6907 147.412 99.9629C146.951 100.214 146.574 100.539 146.281 100.936C146.009 101.313 145.873 101.764 145.873 102.287C145.873 102.999 146.124 103.564 146.627 103.983C147.15 104.402 147.851 104.611 148.731 104.611C149.296 104.611 149.82 104.517 150.301 104.328C150.783 104.14 151.201 103.899 151.557 103.606C151.913 103.313 152.196 103.009 152.405 102.695C152.636 102.36 152.751 102.025 152.751 101.69V99.4604Z" fill="#1A181B"/>
<path d="M167.908 90.1013C169.164 90.1013 170.253 90.3211 171.174 90.7608C172.096 91.1796 172.849 91.7344 173.436 92.4254C174.043 93.0954 174.503 93.8072 174.817 94.561C174.943 94.9379 174.838 95.1368 174.503 95.1577L171.74 95.5032C171.53 95.5451 171.384 95.4508 171.3 95.2205C171.028 94.7599 170.745 94.3516 170.452 93.9957C170.159 93.6397 169.824 93.3571 169.447 93.1477C169.07 92.9383 168.609 92.8336 168.065 92.8336C167.228 92.8336 166.484 93.064 165.835 93.5246C165.207 93.9643 164.715 94.6238 164.359 95.5032C164.024 96.3826 163.857 97.4609 163.857 98.738C163.857 100.036 164.035 101.125 164.391 102.004C164.767 102.884 165.28 103.554 165.929 104.014C166.579 104.454 167.353 104.674 168.254 104.674C169.196 104.674 169.97 104.433 170.578 103.951C171.185 103.449 171.75 102.758 172.274 101.879C172.336 101.795 172.399 101.743 172.462 101.722C172.525 101.701 172.629 101.711 172.776 101.753L174.755 102.287C174.964 102.35 175.027 102.528 174.943 102.821C174.734 103.302 174.43 103.815 174.032 104.36C173.655 104.904 173.184 105.407 172.619 105.867C172.054 106.307 171.373 106.673 170.578 106.967C169.803 107.239 168.913 107.375 167.908 107.375C166.317 107.375 164.903 107.019 163.668 106.307C162.433 105.574 161.459 104.569 160.747 103.292C160.056 101.994 159.711 100.497 159.711 98.8009C159.711 97.084 160.067 95.5765 160.779 94.2783C161.491 92.9593 162.464 91.9333 163.7 91.2005C164.935 90.4677 166.338 90.1013 167.908 90.1013Z" fill="#1A181B"/>
<path d="M181.034 100.026C181.034 100.884 181.233 101.659 181.631 102.35C182.029 103.02 182.573 103.554 183.264 103.951C183.976 104.328 184.751 104.517 185.588 104.517C186.447 104.517 187.221 104.339 187.912 103.983C188.624 103.627 189.294 103.051 189.922 102.256C190.006 102.151 190.079 102.099 190.142 102.099C190.205 102.078 190.31 102.109 190.456 102.193L192.372 103.041C192.644 103.166 192.675 103.355 192.466 103.606C191.838 104.527 191.157 105.271 190.425 105.836C189.713 106.38 188.917 106.778 188.038 107.029C187.179 107.26 186.206 107.375 185.117 107.375C183.526 107.375 182.102 107.019 180.846 106.307C179.589 105.595 178.595 104.611 177.862 103.355C177.15 102.078 176.794 100.612 176.794 98.9579C176.794 97.1363 177.161 95.566 177.894 94.2469C178.647 92.9279 179.652 91.9124 180.909 91.2005C182.165 90.4677 183.547 90.1013 185.054 90.1013C186.645 90.1013 188.027 90.4468 189.2 91.1377C190.393 91.8286 191.325 92.8232 191.995 94.1213C192.665 95.3985 193 96.9583 193 98.8009C193 99.0102 192.979 99.1777 192.937 99.3034C192.916 99.429 192.77 99.5023 192.498 99.5232H181.38C181.254 99.5232 181.16 99.5651 181.097 99.6488C181.055 99.7326 181.034 99.8582 181.034 100.026ZM188.477 97.1991C188.687 97.1991 188.823 97.1782 188.886 97.1363C188.97 97.0735 189.011 96.9479 189.011 96.7594C189.011 96.1104 188.865 95.4718 188.572 94.8437C188.279 94.2155 187.849 93.7026 187.284 93.3047C186.719 92.886 186.028 92.6766 185.211 92.6766C184.374 92.6766 183.641 92.886 183.013 93.3047C182.385 93.7026 181.903 94.2469 181.568 94.9379C181.254 95.6079 181.097 96.3616 181.097 97.1991H188.477Z" fill="#1A181B"/>
<path d="M4.4342 128.397C3.86953 128.397 3.35153 128.294 2.8802 128.089C2.40886 127.879 2.03086 127.575 1.7462 127.179C1.46153 126.777 1.3192 126.29 1.3192 125.716H2.1032C2.1032 126.154 2.21053 126.516 2.4252 126.801C2.63986 127.085 2.9222 127.298 3.2722 127.438C3.62686 127.573 4.00953 127.641 4.4202 127.641C4.89153 127.641 5.2952 127.564 5.6312 127.41C5.9672 127.251 6.22386 127.046 6.4012 126.794C6.5832 126.542 6.6742 126.273 6.6742 125.989C6.6742 125.578 6.5482 125.244 6.2962 124.988C6.04886 124.726 5.68953 124.523 5.2182 124.379L3.7832 123.917C3.0412 123.66 2.48353 123.371 2.1102 123.049C1.73686 122.727 1.5502 122.272 1.5502 121.684C1.5502 121.03 1.79753 120.496 2.2922 120.081C2.78686 119.665 3.49853 119.458 4.4272 119.458C5.26253 119.458 5.9182 119.649 6.3942 120.032C6.87486 120.414 7.15253 120.916 7.2272 121.537H6.4222C6.34753 121.107 6.1422 120.778 5.8062 120.55C5.47486 120.316 5.0152 120.2 4.4272 120.2C3.79253 120.2 3.3002 120.344 2.9502 120.634C2.60486 120.918 2.4322 121.282 2.4322 121.726C2.4322 122.085 2.54186 122.37 2.7612 122.58C2.98053 122.785 3.32586 122.967 3.7972 123.126L5.5332 123.686C6.13986 123.872 6.62753 124.15 6.9962 124.519C7.36953 124.883 7.5562 125.368 7.5562 125.975C7.5562 126.399 7.4372 126.796 7.1992 127.165C6.9612 127.533 6.6112 127.832 6.1492 128.061C5.6872 128.285 5.11553 128.397 4.4342 128.397ZM12.2447 128.397C11.666 128.397 11.155 128.25 10.7117 127.956C10.273 127.657 9.92766 127.249 9.67566 126.731C9.42366 126.208 9.29766 125.613 9.29766 124.946C9.29766 124.218 9.42133 123.592 9.66866 123.07C9.92066 122.547 10.266 122.146 10.7047 121.866C11.148 121.586 11.6613 121.446 12.2447 121.446C12.7347 121.446 13.15 121.546 13.4907 121.747C13.836 121.943 14.1137 122.211 14.3237 122.552C14.5337 122.892 14.6807 123.277 14.7647 123.707C14.8533 124.136 14.8883 124.579 14.8697 125.037H9.96266V124.477H14.3727L14.0507 124.687C14.0647 124.383 14.046 124.082 13.9947 123.784C13.948 123.48 13.857 123.203 13.7217 122.951C13.591 122.699 13.4067 122.496 13.1687 122.342C12.9307 122.188 12.625 122.111 12.2517 122.111C11.7757 122.111 11.379 122.234 11.0617 122.482C10.7443 122.724 10.5063 123.042 10.3477 123.434C10.1937 123.821 10.1167 124.236 10.1167 124.68V125.023C10.1167 125.531 10.1937 125.989 10.3477 126.395C10.5063 126.801 10.742 127.123 11.0547 127.361C11.372 127.599 11.7687 127.718 12.2447 127.718C12.7347 127.718 13.1337 127.599 13.4417 127.361C13.7543 127.118 13.941 126.763 14.0017 126.297H14.8697C14.7997 126.74 14.6433 127.118 14.4007 127.431C14.1627 127.743 13.8593 127.984 13.4907 128.152C13.122 128.315 12.7067 128.397 12.2447 128.397ZM21.658 121.593H22.47V128.243H21.658V121.593ZM16.87 121.593H17.682V125.765C17.682 126.381 17.8314 126.852 18.13 127.179C18.4334 127.501 18.8697 127.662 19.439 127.662C19.9057 127.662 20.3047 127.536 20.636 127.284C20.9674 127.032 21.2194 126.693 21.392 126.269C21.5694 125.844 21.658 125.375 21.658 124.862H22.043C22.043 125.571 21.9334 126.189 21.714 126.717C21.4947 127.244 21.1844 127.652 20.783 127.942C20.3817 128.226 19.9057 128.369 19.355 128.369C18.8417 128.369 18.3984 128.273 18.025 128.082C17.6564 127.89 17.3717 127.606 17.171 127.228C16.9704 126.845 16.87 126.371 16.87 125.807V121.593ZM30.8521 128.397C30.2734 128.397 29.7624 128.25 29.3191 127.956C28.8804 127.657 28.5351 127.249 28.2831 126.731C28.0311 126.208 27.9051 125.613 27.9051 124.946C27.9051 124.218 28.0288 123.592 28.2761 123.07C28.5281 122.547 28.8734 122.146 29.3121 121.866C29.7554 121.586 30.2688 121.446 30.8521 121.446C31.3421 121.446 31.7574 121.546 32.0981 121.747C32.4434 121.943 32.7211 122.211 32.9311 122.552C33.1411 122.892 33.2881 123.277 33.3721 123.707C33.4608 124.136 33.4958 124.579 33.4771 125.037H28.5701V124.477H32.9801L32.6581 124.687C32.6721 124.383 32.6534 124.082 32.6021 123.784C32.5554 123.48 32.4644 123.203 32.3291 122.951C32.1984 122.699 32.0141 122.496 31.7761 122.342C31.5381 122.188 31.2324 122.111 30.8591 122.111C30.3831 122.111 29.9864 122.234 29.6691 122.482C29.3518 122.724 29.1138 123.042 28.9551 123.434C28.8011 123.821 28.7241 124.236 28.7241 124.68V125.023C28.7241 125.531 28.8011 125.989 28.9551 126.395C29.1138 126.801 29.3494 127.123 29.6621 127.361C29.9794 127.599 30.3761 127.718 30.8521 127.718C31.3421 127.718 31.7411 127.599 32.0491 127.361C32.3618 127.118 32.5484 126.763 32.6091 126.297H33.4771C33.4071 126.74 33.2508 127.118 33.0081 127.431C32.7701 127.743 32.4668 127.984 32.0981 128.152C31.7294 128.315 31.3141 128.397 30.8521 128.397ZM38.0464 128.397C37.4024 128.397 36.8704 128.303 36.4504 128.117C36.0351 127.93 35.7224 127.678 35.5124 127.361C35.3024 127.043 35.1881 126.689 35.1694 126.297H35.9814C36.0094 126.768 36.1984 127.125 36.5484 127.368C36.9031 127.606 37.3861 127.725 37.9974 127.725C38.3148 127.725 38.6088 127.673 38.8794 127.571C39.1501 127.463 39.3671 127.319 39.5304 127.137C39.6984 126.95 39.7824 126.74 39.7824 126.507C39.7824 126.208 39.6728 125.975 39.4534 125.807C39.2341 125.639 38.8864 125.494 38.4104 125.373L37.1994 125.009C36.6161 124.841 36.1704 124.603 35.8624 124.295C35.5544 123.982 35.4004 123.609 35.4004 123.175C35.4004 122.652 35.6268 122.234 36.0794 121.922C36.5321 121.604 37.1224 121.446 37.8504 121.446C38.6438 121.446 39.2621 121.602 39.7054 121.915C40.1488 122.227 40.3821 122.617 40.4054 123.084H39.5654C39.5141 122.752 39.3438 122.507 39.0544 122.349C38.7651 122.185 38.3638 122.104 37.8504 122.104C37.3418 122.104 36.9474 122.22 36.6674 122.454C36.3874 122.687 36.2474 122.941 36.2474 123.217C36.2474 123.749 36.7048 124.138 37.6194 124.386L38.8094 124.757C39.4068 124.925 39.8618 125.149 40.1744 125.429C40.4918 125.709 40.6504 126.068 40.6504 126.507C40.6504 126.829 40.5454 127.134 40.3354 127.424C40.1301 127.713 39.8338 127.949 39.4464 128.131C39.0591 128.308 38.5924 128.397 38.0464 128.397ZM45.8992 128.397C45.4139 128.397 44.9869 128.282 44.6182 128.054C44.2542 127.825 43.9696 127.496 43.7642 127.067C43.5636 126.637 43.4632 126.122 43.4632 125.52H43.8552C43.8552 125.991 43.9486 126.388 44.1352 126.71C44.3266 127.027 44.5716 127.267 44.8702 127.431C45.1736 127.594 45.4932 127.676 45.8292 127.676C46.1979 127.676 46.5456 127.568 46.8722 127.354C47.1989 127.139 47.4649 126.826 47.6702 126.416C47.8756 126 47.9782 125.496 47.9782 124.904C47.9782 124.32 47.8802 123.826 47.6842 123.42C47.4882 123.009 47.2269 122.696 46.9002 122.482C46.5782 122.262 46.2236 122.153 45.8362 122.153C45.5002 122.153 45.1806 122.237 44.8772 122.405C44.5739 122.573 44.3266 122.82 44.1352 123.147C43.9486 123.469 43.8552 123.87 43.8552 124.351H43.4632C43.4632 123.735 43.5682 123.21 43.7782 122.776C43.9929 122.342 44.2846 122.013 44.6532 121.789C45.0219 121.56 45.4396 121.446 45.9062 121.446C46.4242 121.446 46.9049 121.586 47.3482 121.866C47.7916 122.141 48.1486 122.538 48.4192 123.056C48.6899 123.569 48.8252 124.185 48.8252 124.904C48.8252 125.632 48.6876 126.257 48.4122 126.78C48.1416 127.302 47.7822 127.704 47.3342 127.984C46.8909 128.259 46.4126 128.397 45.8992 128.397ZM43.0432 131.519V121.6H43.7292L43.8552 123.112V131.519H43.0432ZM55.108 128.243L55.003 126.864V123.924C55.003 123.256 54.8583 122.783 54.569 122.503C54.2796 122.223 53.8666 122.083 53.33 122.083C53.0313 122.083 52.7536 122.127 52.497 122.216C52.2403 122.3 52.035 122.437 51.881 122.629C51.727 122.815 51.65 123.063 51.65 123.371H50.726C50.726 122.899 50.8426 122.524 51.076 122.244C51.3093 121.959 51.622 121.756 52.014 121.635C52.4106 121.509 52.8493 121.446 53.33 121.446C53.806 121.446 54.2306 121.53 54.604 121.698C54.9773 121.861 55.2713 122.127 55.486 122.496C55.7053 122.86 55.815 123.34 55.815 123.938V128.243H55.108ZM52.798 128.397C52.266 128.397 51.8273 128.301 51.482 128.11C51.1366 127.914 50.88 127.664 50.712 127.361C50.544 127.057 50.46 126.745 50.46 126.423C50.46 125.956 50.572 125.583 50.796 125.303C51.0246 125.023 51.328 124.82 51.706 124.694C52.0886 124.568 52.5063 124.505 52.959 124.505C53.2996 124.505 53.652 124.544 54.016 124.624C54.3846 124.698 54.737 124.803 55.073 124.939V125.485C54.7836 125.359 54.45 125.258 54.072 125.184C53.694 125.109 53.351 125.072 53.043 125.072C52.567 125.072 52.161 125.174 51.825 125.38C51.489 125.585 51.321 125.933 51.321 126.423C51.321 126.791 51.4446 127.104 51.692 127.361C51.944 127.617 52.3476 127.746 52.903 127.746C53.281 127.746 53.6286 127.655 53.946 127.473C54.2633 127.291 54.5176 127.064 54.709 126.794C54.905 126.523 55.003 126.25 55.003 125.975H55.206C55.206 126.399 55.1056 126.796 54.905 127.165C54.709 127.533 54.429 127.832 54.065 128.061C53.7056 128.285 53.2833 128.397 52.798 128.397ZM60.7598 128.397C60.2418 128.397 59.7565 128.254 59.3038 127.97C58.8511 127.685 58.4848 127.281 58.2048 126.759C57.9295 126.236 57.7918 125.618 57.7918 124.904C57.7918 124.18 57.9295 123.562 58.2048 123.049C58.4848 122.531 58.8511 122.134 59.3038 121.859C59.7565 121.583 60.2418 121.446 60.7598 121.446C61.1051 121.446 61.4178 121.497 61.6978 121.6C61.9825 121.698 62.2321 121.838 62.4468 122.02C62.6661 122.197 62.8528 122.405 63.0068 122.643C63.1608 122.876 63.2798 123.128 63.3638 123.399L62.5168 123.525C62.3815 123.095 62.1598 122.759 61.8518 122.517C61.5438 122.274 61.1751 122.153 60.7458 122.153C60.3818 122.153 60.0388 122.258 59.7168 122.468C59.3995 122.678 59.1405 122.988 58.9398 123.399C58.7391 123.805 58.6388 124.306 58.6388 124.904C58.6388 125.445 58.7275 125.926 58.9048 126.346C59.0868 126.761 59.3365 127.088 59.6538 127.326C59.9711 127.559 60.3351 127.676 60.7458 127.676C61.3105 127.676 61.7468 127.536 62.0548 127.256C62.3628 126.976 62.5168 126.581 62.5168 126.073H63.3638C63.3638 126.53 63.2541 126.934 63.0348 127.284C62.8155 127.634 62.5098 127.907 62.1178 128.103C61.7258 128.299 61.2731 128.397 60.7598 128.397ZM59.4088 130.686L59.5768 130.287C59.9361 130.487 60.2605 130.602 60.5498 130.63C60.8438 130.658 61.0771 130.62 61.2498 130.518C61.4271 130.42 61.5205 130.284 61.5298 130.112C61.5438 129.934 61.4738 129.78 61.3198 129.65C61.1658 129.519 60.9745 129.409 60.7458 129.321C60.5218 129.232 60.3025 129.164 60.0878 129.118L60.5638 127.921L61.1378 127.956L60.6828 129.097L60.4098 128.712C60.8158 128.814 61.1611 128.931 61.4458 129.062C61.7351 129.197 61.9521 129.351 62.0968 129.524C62.2461 129.701 62.3115 129.906 62.2928 130.14C62.2741 130.406 62.1621 130.616 61.9568 130.77C61.7515 130.928 61.4971 131.031 61.1938 131.078C60.8905 131.124 60.5778 131.115 60.2558 131.05C59.9385 130.984 59.6561 130.863 59.4088 130.686ZM67.9389 128.397C67.3462 128.397 66.8235 128.264 66.3709 127.998C65.9182 127.732 65.5612 127.34 65.2999 126.822C65.0432 126.304 64.9149 125.669 64.9149 124.918C64.9149 124.166 65.0432 123.534 65.2999 123.021C65.5612 122.503 65.9182 122.111 66.3709 121.845C66.8235 121.579 67.3462 121.446 67.9389 121.446C68.5315 121.446 69.0542 121.579 69.5069 121.845C69.9595 122.111 70.3142 122.503 70.5709 123.021C70.8275 123.534 70.9559 124.166 70.9559 124.918C70.9559 125.669 70.8275 126.304 70.5709 126.822C70.3142 127.34 69.9595 127.732 69.5069 127.998C69.0542 128.264 68.5315 128.397 67.9389 128.397ZM67.9249 127.69C68.4149 127.69 68.8232 127.575 69.1499 127.347C69.4765 127.113 69.7192 126.789 69.8779 126.374C70.0412 125.958 70.1229 125.473 70.1229 124.918C70.1229 124.082 69.9432 123.41 69.5839 122.902C69.2292 122.393 68.6855 122.139 67.9529 122.139C67.4629 122.139 67.0545 122.255 66.7279 122.489C66.4059 122.717 66.1632 123.042 65.9999 123.462C65.8412 123.877 65.7619 124.362 65.7619 124.918C65.7619 125.748 65.9392 126.418 66.2939 126.927C66.6532 127.435 67.1969 127.69 67.9249 127.69ZM78.6996 128.397C78.1723 128.397 77.6846 128.254 77.2366 127.97C76.7933 127.68 76.4386 127.274 76.1726 126.752C75.9066 126.229 75.7736 125.611 75.7736 124.897C75.7736 124.183 75.9043 123.569 76.1656 123.056C76.4316 122.538 76.7816 122.141 77.2156 121.866C77.6543 121.586 78.1326 121.446 78.6506 121.446C79.1313 121.446 79.5583 121.565 79.9316 121.803C80.3049 122.036 80.5966 122.372 80.8066 122.811C81.0166 123.245 81.1216 123.767 81.1216 124.379H80.7506C80.7506 123.889 80.6549 123.48 80.4636 123.154C80.2769 122.822 80.0319 122.573 79.7286 122.405C79.4253 122.237 79.1009 122.153 78.7556 122.153C78.3776 122.153 78.0253 122.262 77.6986 122.482C77.3766 122.701 77.1153 123.014 76.9146 123.42C76.7186 123.826 76.6206 124.318 76.6206 124.897C76.6206 125.48 76.7186 125.979 76.9146 126.395C77.1106 126.81 77.3719 127.127 77.6986 127.347C78.0253 127.566 78.3799 127.676 78.7626 127.676C79.0893 127.676 79.4043 127.592 79.7076 127.424C80.0109 127.256 80.2606 127.008 80.4566 126.682C80.6526 126.35 80.7506 125.944 80.7506 125.464H81.1216C81.1216 126.08 81.0143 126.607 80.7996 127.046C80.5896 127.484 80.3003 127.82 79.9316 128.054C79.5676 128.282 79.1569 128.397 78.6996 128.397ZM80.8696 128.243L80.7506 126.731V118.723H81.5556V128.243H80.8696ZM86.729 128.397C86.1504 128.397 85.6394 128.25 85.196 127.956C84.7574 127.657 84.412 127.249 84.16 126.731C83.908 126.208 83.782 125.613 83.782 124.946C83.782 124.218 83.9057 123.592 84.153 123.07C84.405 122.547 84.7504 122.146 85.189 121.866C85.6324 121.586 86.1457 121.446 86.729 121.446C87.219 121.446 87.6344 121.546 87.975 121.747C88.3204 121.943 88.598 122.211 88.808 122.552C89.018 122.892 89.165 123.277 89.249 123.707C89.3377 124.136 89.3727 124.579 89.354 125.037H84.447V124.477H88.857L88.535 124.687C88.549 124.383 88.5304 124.082 88.479 123.784C88.4324 123.48 88.3414 123.203 88.206 122.951C88.0754 122.699 87.891 122.496 87.653 122.342C87.415 122.188 87.1094 122.111 86.736 122.111C86.26 122.111 85.8634 122.234 85.546 122.482C85.2287 122.724 84.9907 123.042 84.832 123.434C84.678 123.821 84.601 124.236 84.601 124.68V125.023C84.601 125.531 84.678 125.989 84.832 126.395C84.9907 126.801 85.2264 127.123 85.539 127.361C85.8564 127.599 86.253 127.718 86.729 127.718C87.219 127.718 87.618 127.599 87.926 127.361C88.2387 127.118 88.4254 126.763 88.486 126.297H89.354C89.284 126.74 89.1277 127.118 88.885 127.431C88.647 127.743 88.3437 127.984 87.975 128.152C87.6064 128.315 87.191 128.397 86.729 128.397ZM97.0313 128.397C96.5133 128.397 96.028 128.254 95.5753 127.97C95.1226 127.685 94.7563 127.281 94.4763 126.759C94.201 126.236 94.0633 125.618 94.0633 124.904C94.0633 124.18 94.201 123.562 94.4763 123.049C94.7563 122.531 95.1226 122.134 95.5753 121.859C96.028 121.583 96.5133 121.446 97.0313 121.446C97.3766 121.446 97.6893 121.497 97.9693 121.6C98.254 121.698 98.5036 121.838 98.7183 122.02C98.9376 122.197 99.1243 122.405 99.2783 122.643C99.4323 122.876 99.5513 123.128 99.6353 123.399L98.7883 123.525C98.653 123.095 98.4313 122.759 98.1233 122.517C97.8153 122.274 97.4466 122.153 97.0173 122.153C96.6533 122.153 96.3103 122.258 95.9883 122.468C95.671 122.678 95.412 122.988 95.2113 123.399C95.0106 123.805 94.9103 124.306 94.9103 124.904C94.9103 125.445 94.999 125.926 95.1763 126.346C95.3583 126.761 95.608 127.088 95.9253 127.326C96.2426 127.559 96.6066 127.676 97.0173 127.676C97.582 127.676 98.0183 127.536 98.3263 127.256C98.6343 126.976 98.7883 126.581 98.7883 126.073H99.6353C99.6353 126.53 99.5256 126.934 99.3063 127.284C99.087 127.634 98.7813 127.907 98.3893 128.103C97.9973 128.299 97.5446 128.397 97.0313 128.397ZM104.21 128.397C103.618 128.397 103.095 128.264 102.642 127.998C102.19 127.732 101.833 127.34 101.571 126.822C101.315 126.304 101.186 125.669 101.186 124.918C101.186 124.166 101.315 123.534 101.571 123.021C101.833 122.503 102.19 122.111 102.642 121.845C103.095 121.579 103.618 121.446 104.21 121.446C104.803 121.446 105.326 121.579 105.778 121.845C106.231 122.111 106.586 122.503 106.842 123.021C107.099 123.534 107.227 124.166 107.227 124.918C107.227 125.669 107.099 126.304 106.842 126.822C106.586 127.34 106.231 127.732 105.778 127.998C105.326 128.264 104.803 128.397 104.21 128.397ZM104.196 127.69C104.686 127.69 105.095 127.575 105.421 127.347C105.748 127.113 105.991 126.789 106.149 126.374C106.313 125.958 106.394 125.473 106.394 124.918C106.394 124.082 106.215 123.41 105.855 122.902C105.501 122.393 104.957 122.139 104.224 122.139C103.734 122.139 103.326 122.255 102.999 122.489C102.677 122.717 102.435 123.042 102.271 123.462C102.113 123.877 102.033 124.362 102.033 124.918C102.033 125.748 102.211 126.418 102.565 126.927C102.925 127.435 103.468 127.69 104.196 127.69ZM118.919 128.243V124.33C118.919 123.625 118.751 123.086 118.415 122.713C118.079 122.339 117.62 122.153 117.036 122.153C116.374 122.153 115.872 122.405 115.531 122.909C115.191 123.408 115.02 124.075 115.02 124.911H114.607C114.607 124.365 114.663 123.877 114.775 123.448C114.887 123.014 115.053 122.65 115.272 122.356C115.492 122.057 115.762 121.831 116.084 121.677C116.411 121.523 116.787 121.446 117.211 121.446C117.725 121.446 118.168 121.56 118.541 121.789C118.919 122.017 119.211 122.349 119.416 122.783C119.622 123.212 119.724 123.728 119.724 124.33V128.243H118.919ZM109.42 128.243V121.6H110.106L110.204 123.035C110.405 122.535 110.699 122.146 111.086 121.866C111.474 121.586 111.947 121.446 112.507 121.446C113.021 121.446 113.464 121.56 113.837 121.789C114.215 122.017 114.507 122.349 114.712 122.783C114.918 123.212 115.02 123.728 115.02 124.33V128.243H114.229V124.33C114.229 123.625 114.059 123.086 113.718 122.713C113.382 122.339 112.918 122.153 112.325 122.153C111.891 122.153 111.516 122.272 111.198 122.51C110.886 122.748 110.645 123.081 110.477 123.511C110.314 123.94 110.232 124.442 110.232 125.016V128.243H109.42ZM125.278 128.397C124.793 128.397 124.366 128.282 123.997 128.054C123.633 127.825 123.348 127.496 123.143 127.067C122.942 126.637 122.842 126.122 122.842 125.52H123.234C123.234 125.991 123.327 126.388 123.514 126.71C123.705 127.027 123.95 127.267 124.249 127.431C124.552 127.594 124.872 127.676 125.208 127.676C125.577 127.676 125.924 127.568 126.251 127.354C126.578 127.139 126.844 126.826 127.049 126.416C127.254 126 127.357 125.496 127.357 124.904C127.357 124.32 127.259 123.826 127.063 123.42C126.867 123.009 126.606 122.696 126.279 122.482C125.957 122.262 125.602 122.153 125.215 122.153C124.879 122.153 124.559 122.237 124.256 122.405C123.953 122.573 123.705 122.82 123.514 123.147C123.327 123.469 123.234 123.87 123.234 124.351H122.842C122.842 123.735 122.947 123.21 123.157 122.776C123.372 122.342 123.663 122.013 124.032 121.789C124.401 121.56 124.818 121.446 125.285 121.446C125.803 121.446 126.284 121.586 126.727 121.866C127.17 122.141 127.527 122.538 127.798 123.056C128.069 123.569 128.204 124.185 128.204 124.904C128.204 125.632 128.066 126.257 127.791 126.78C127.52 127.302 127.161 127.704 126.713 127.984C126.27 128.259 125.791 128.397 125.278 128.397ZM122.422 131.519V121.6H123.108L123.234 123.112V131.519H122.422ZM130.434 128.243V121.593H131.246V128.243H130.434ZM130.945 125.198C130.945 124.367 131.017 123.676 131.162 123.126C131.307 122.575 131.531 122.162 131.834 121.887C132.137 121.611 132.525 121.474 132.996 121.474C133.159 121.474 133.309 121.485 133.444 121.509C133.584 121.532 133.724 121.569 133.864 121.621L133.773 122.412C133.638 122.36 133.488 122.318 133.325 122.286C133.162 122.248 133.019 122.23 132.898 122.23C132.483 122.23 132.154 122.356 131.911 122.608C131.673 122.86 131.503 123.21 131.4 123.658C131.297 124.101 131.246 124.614 131.246 125.198H130.945ZM139.327 128.243L139.222 126.864V123.924C139.222 123.256 139.077 122.783 138.788 122.503C138.498 122.223 138.085 122.083 137.549 122.083C137.25 122.083 136.972 122.127 136.716 122.216C136.459 122.3 136.254 122.437 136.1 122.629C135.946 122.815 135.869 123.063 135.869 123.371H134.945C134.945 122.899 135.061 122.524 135.295 122.244C135.528 121.959 135.841 121.756 136.233 121.635C136.629 121.509 137.068 121.446 137.549 121.446C138.025 121.446 138.449 121.53 138.823 121.698C139.196 121.861 139.49 122.127 139.705 122.496C139.924 122.86 140.034 123.34 140.034 123.938V128.243H139.327ZM137.017 128.397C136.485 128.397 136.046 128.301 135.701 128.11C135.355 127.914 135.099 127.664 134.931 127.361C134.763 127.057 134.679 126.745 134.679 126.423C134.679 125.956 134.791 125.583 135.015 125.303C135.243 125.023 135.547 124.82 135.925 124.694C136.307 124.568 136.725 124.505 137.178 124.505C137.518 124.505 137.871 124.544 138.235 124.624C138.603 124.698 138.956 124.803 139.292 124.939V125.485C139.002 125.359 138.669 125.258 138.291 125.184C137.913 125.109 137.57 125.072 137.262 125.072C136.786 125.072 136.38 125.174 136.044 125.38C135.708 125.585 135.54 125.933 135.54 126.423C135.54 126.791 135.663 127.104 135.911 127.361C136.163 127.617 136.566 127.746 137.122 127.746C137.5 127.746 137.847 127.655 138.165 127.473C138.482 127.291 138.736 127.064 138.928 126.794C139.124 126.523 139.222 126.25 139.222 125.975H139.425C139.425 126.399 139.324 126.796 139.124 127.165C138.928 127.533 138.648 127.832 138.284 128.061C137.924 128.285 137.502 128.397 137.017 128.397ZM148.17 128.397C147.592 128.397 147.081 128.25 146.637 127.956C146.199 127.657 145.853 127.249 145.601 126.731C145.349 126.208 145.223 125.613 145.223 124.946C145.223 124.218 145.347 123.592 145.594 123.07C145.846 122.547 146.192 122.146 146.63 121.866C147.074 121.586 147.587 121.446 148.17 121.446C148.66 121.446 149.076 121.546 149.416 121.747C149.762 121.943 150.039 122.211 150.249 122.552C150.459 122.892 150.606 123.277 150.69 123.707C150.779 124.136 150.814 124.579 150.795 125.037H145.888V124.477H150.298L149.976 124.687C149.99 124.383 149.972 124.082 149.92 123.784C149.874 123.48 149.783 123.203 149.647 122.951C149.517 122.699 149.332 122.496 149.094 122.342C148.856 122.188 148.551 122.111 148.177 122.111C147.701 122.111 147.305 122.234 146.987 122.482C146.67 122.724 146.432 123.042 146.273 123.434C146.119 123.821 146.042 124.236 146.042 124.68V125.023C146.042 125.531 146.119 125.989 146.273 126.395C146.432 126.801 146.668 127.123 146.98 127.361C147.298 127.599 147.694 127.718 148.17 127.718C148.66 127.718 149.059 127.599 149.367 127.361C149.68 127.118 149.867 126.763 149.927 126.297H150.795C150.725 126.74 150.569 127.118 150.326 127.431C150.088 127.743 149.785 127.984 149.416 128.152C149.048 128.315 148.632 128.397 148.17 128.397ZM155.057 121.6H155.974L158.312 127.543H158.144L160.482 121.6H161.399L158.655 128.243H157.801L155.057 121.6ZM165.37 128.397C164.791 128.397 164.28 128.25 163.837 127.956C163.398 127.657 163.053 127.249 162.801 126.731C162.549 126.208 162.423 125.613 162.423 124.946C162.423 124.218 162.546 123.592 162.794 123.07C163.046 122.547 163.391 122.146 163.83 121.866C164.273 121.586 164.786 121.446 165.37 121.446C165.86 121.446 166.275 121.546 166.616 121.747C166.961 121.943 167.239 122.211 167.449 122.552C167.659 122.892 167.806 123.277 167.89 123.707C167.978 124.136 168.013 124.579 167.995 125.037H163.088V124.477H167.498L167.176 124.687C167.19 124.383 167.171 124.082 167.12 123.784C167.073 123.48 166.982 123.203 166.847 122.951C166.716 122.699 166.532 122.496 166.294 122.342C166.056 122.188 165.75 122.111 165.377 122.111C164.901 122.111 164.504 122.234 164.187 122.482C163.869 122.724 163.631 123.042 163.473 123.434C163.319 123.821 163.242 124.236 163.242 124.68V125.023C163.242 125.531 163.319 125.989 163.473 126.395C163.631 126.801 163.867 127.123 164.18 127.361C164.497 127.599 164.894 127.718 165.37 127.718C165.86 127.718 166.259 127.599 166.567 127.361C166.879 127.118 167.066 126.763 167.127 126.297H167.995C167.925 126.74 167.768 127.118 167.526 127.431C167.288 127.743 166.984 127.984 166.616 128.152C166.247 128.315 165.832 128.397 165.37 128.397ZM175.028 128.243V124.33C175.028 123.625 174.858 123.086 174.517 122.713C174.181 122.339 173.717 122.153 173.124 122.153C172.69 122.153 172.314 122.272 171.997 122.51C171.684 122.748 171.444 123.081 171.276 123.511C171.113 123.94 171.031 124.442 171.031 125.016H170.674C170.674 124.288 170.772 123.658 170.968 123.126C171.169 122.589 171.463 122.176 171.85 121.887C172.242 121.593 172.727 121.446 173.306 121.446C173.819 121.446 174.263 121.56 174.636 121.789C175.014 122.017 175.306 122.349 175.511 122.783C175.716 123.212 175.819 123.728 175.819 124.33V128.243H175.028ZM170.219 128.243V121.6H170.905L171.031 123.238V128.243H170.219ZM180.87 128.397C180.342 128.397 179.855 128.254 179.407 127.97C178.963 127.68 178.609 127.274 178.343 126.752C178.077 126.229 177.944 125.611 177.944 124.897C177.944 124.183 178.074 123.569 178.336 123.056C178.602 122.538 178.952 122.141 179.386 121.866C179.824 121.586 180.303 121.446 180.821 121.446C181.301 121.446 181.728 121.565 182.102 121.803C182.475 122.036 182.767 122.372 182.977 122.811C183.187 123.245 183.292 123.767 183.292 124.379H182.921C182.921 123.889 182.825 123.48 182.634 123.154C182.447 122.822 182.202 122.573 181.899 122.405C181.595 122.237 181.271 122.153 180.926 122.153C180.548 122.153 180.195 122.262 179.869 122.482C179.547 122.701 179.285 123.014 179.085 123.42C178.889 123.826 178.791 124.318 178.791 124.897C178.791 125.48 178.889 125.979 179.085 126.395C179.281 126.81 179.542 127.127 179.869 127.347C180.195 127.566 180.55 127.676 180.933 127.676C181.259 127.676 181.574 127.592 181.878 127.424C182.181 127.256 182.431 127.008 182.627 126.682C182.823 126.35 182.921 125.944 182.921 125.464H183.292C183.292 126.08 183.184 126.607 182.97 127.046C182.76 127.484 182.47 127.82 182.102 128.054C181.738 128.282 181.327 128.397 180.87 128.397ZM183.04 128.243L182.921 126.731V118.723H183.726V128.243H183.04ZM190.733 128.243L190.628 126.864V123.924C190.628 123.256 190.483 122.783 190.194 122.503C189.905 122.223 189.492 122.083 188.955 122.083C188.656 122.083 188.379 122.127 188.122 122.216C187.865 122.3 187.66 122.437 187.506 122.629C187.352 122.815 187.275 123.063 187.275 123.371H186.351C186.351 122.899 186.468 122.524 186.701 122.244C186.934 121.959 187.247 121.756 187.639 121.635C188.036 121.509 188.474 121.446 188.955 121.446C189.431 121.446 189.856 121.53 190.229 121.698C190.602 121.861 190.896 122.127 191.111 122.496C191.33 122.86 191.44 123.34 191.44 123.938V128.243H190.733ZM188.423 128.397C187.891 128.397 187.452 128.301 187.107 128.11C186.762 127.914 186.505 127.664 186.337 127.361C186.169 127.057 186.085 126.745 186.085 126.423C186.085 125.956 186.197 125.583 186.421 125.303C186.65 125.023 186.953 124.82 187.331 124.694C187.714 124.568 188.131 124.505 188.584 124.505C188.925 124.505 189.277 124.544 189.641 124.624C190.01 124.698 190.362 124.803 190.698 124.939V125.485C190.409 125.359 190.075 125.258 189.697 125.184C189.319 125.109 188.976 125.072 188.668 125.072C188.192 125.072 187.786 125.174 187.45 125.38C187.114 125.585 186.946 125.933 186.946 126.423C186.946 126.791 187.07 127.104 187.317 127.361C187.569 127.617 187.973 127.746 188.528 127.746C188.906 127.746 189.254 127.655 189.571 127.473C189.888 127.291 190.143 127.064 190.334 126.794C190.53 126.523 190.628 126.25 190.628 125.975H190.831C190.831 126.399 190.731 126.796 190.53 127.165C190.334 127.533 190.054 127.832 189.69 128.061C189.331 128.285 188.908 128.397 188.423 128.397Z" fill="#5F5B62"/>
</svg>
